<svg width="166" height="41" viewBox="0 0 166 41" fill="none" xmlns="http://www.w3.org/2000/svg">
<g clip-path="url(#clip0_23_113)">
<path d="M23.7358 39.09H30.5811V10.5077H23.7358V12.8409C17.2657 8.17442 8.45122 9.82713 3.95023 16.5352C-0.550766 23.2433 1.04334 32.3819 7.51352 37.0484C12.3896 40.5482 18.8598 40.5482 23.7358 37.0484V39.09ZM8.07614 24.896C8.07614 20.424 11.6394 16.7297 15.9529 16.7297C20.2663 16.7297 23.8296 20.424 23.8296 24.896C23.8296 29.3681 20.2663 33.0624 15.9529 33.0624C11.6394 33.0624 8.07614 29.4653 8.07614 24.896ZM55.7117 0.785797V12.8409C49.2415 8.17442 40.427 9.92435 35.926 16.5352C31.425 23.1461 33.1129 32.3819 39.4893 37.0484C44.3654 40.5482 50.8356 40.5482 55.7117 37.0484V39.09H62.5569V0.785797L55.7117 0.785797ZM40.0519 24.896C40.0519 20.424 43.6152 16.7297 47.9287 16.7297C52.2421 16.7297 55.8054 20.424 55.8054 24.896C55.8054 29.3681 52.2421 33.0624 47.9287 33.0624C43.6152 33.0624 40.0519 29.4653 40.0519 24.896ZM72.7779 0.785797H65.9327V7.88276H72.7779V0.785797ZM72.7779 10.5077H65.9327V39.09H72.7779V10.5077ZM97.9085 0.785797V12.8409C91.4383 8.17442 82.6239 9.82713 78.1229 16.5352C73.6219 23.2433 75.216 32.3819 81.6861 37.0484C86.5622 40.5482 93.0324 40.5482 97.9085 37.0484V39.09H104.754V0.785797L97.9085 0.785797ZM82.2488 24.896C82.2488 20.424 85.812 16.7297 90.1255 16.7297C94.439 16.7297 98.0022 20.424 98.0022 24.896C98.0022 29.3681 94.439 33.0624 90.1255 33.0624C85.812 33.0624 82.2488 29.4653 82.2488 24.896ZM129.978 39.09H136.823V10.5077H129.978V12.8409C123.508 8.17442 114.693 9.82713 110.192 16.5352C105.691 23.2433 107.286 32.3819 113.756 37.0484C118.632 40.5482 125.102 40.5482 129.978 37.0484V39.09ZM114.318 24.896C114.318 20.424 117.882 16.7297 122.195 16.7297C126.509 16.7297 130.072 20.424 130.072 24.896C130.072 29.3681 126.509 33.0624 122.195 33.0624C117.788 33.0624 114.318 29.4653 114.318 24.896ZM139.355 29.757C139.543 35.4929 144.325 39.576 152.202 39.576C158.672 39.576 164.017 36.6595 164.017 30.2431C164.017 25.771 161.579 23.1461 155.953 22.0767L151.545 21.2017C148.732 20.6184 146.763 20.1323 146.763 18.3824C146.763 16.438 148.638 15.6603 150.983 15.6603C154.452 15.6603 155.859 17.4102 155.953 19.549H162.892C162.516 13.9103 158.203 10.216 151.264 10.216C144.137 10.216 139.824 14.2992 139.824 19.6462C139.824 26.1599 144.888 27.2293 149.295 28.007L152.952 28.6876C155.577 29.1736 156.703 29.9514 156.703 31.5069C156.703 32.868 155.39 34.3262 152.295 34.3262C147.794 34.3262 146.388 31.8958 146.294 29.8542L139.355 29.757Z" fill="white"/>
</g>
<defs>
<clipPath id="clip0_23_113">
<rect width="165.128" height="40" fill="white" transform="translate(0 0.259277)"/>
</clipPath>
</defs>
</svg>
