<svg width="145" height="41" viewBox="0 0 145 41" fill="none" xmlns="http://www.w3.org/2000/svg">
<path d="M136.93 2.21515H123.37L107.489 18.2721L121.282 18.2697L136.93 2.21573V2.21515Z" fill="white"/>
<path d="M94.333 30.6497V30.7577V31.5616V38.0069H95.4312C96.8985 38.0069 98.2981 37.8914 99.6454 37.6529C100.984 37.4129 102.171 37.032 103.197 36.5055C104.218 35.982 105.036 35.28 105.653 34.398C106.261 33.5176 106.567 32.4346 106.567 31.1477V21.6185V17.9886V2.21511H94.333V30.6497Z" fill="white"/>
<path d="M121.281 21.2146H107.488L122.821 34.4352C127.123 38.0171 131.492 38.0066 133.006 38.0066H142.383L121.281 21.2146Z" fill="white"/>
<path d="M36.1951 15.0524H14.8809C14.5179 15.0524 14.218 14.7599 14.218 14.4059V12.066C14.218 11.709 14.5179 11.4225 14.8809 11.4225H36.1951C37.9162 11.4225 39.3127 12.2325 39.3127 13.236C39.3127 14.2364 37.9162 15.0524 36.1951 15.0524ZM36.1951 29.1909H14.8809C14.5179 29.1909 14.218 28.9029 14.218 28.5474V26.206C14.218 25.849 14.5179 25.561 14.8809 25.561H36.1951C37.9162 25.561 39.3127 26.3755 39.3127 27.376C39.3127 28.3794 37.9162 29.1909 36.1951 29.1909ZM41.9382 17.9008L41.8766 17.8993C46.4615 17.4178 50.0144 14.1059 50.0144 10.0861C50.0144 5.7392 45.854 2.21582 40.7277 2.21582L39.8141 2.22631C39.6034 2.22182 39.4004 2.21582 39.1835 2.21582H2.11511V38.0076H39.1112C39.5327 38.0076 39.9479 37.9971 40.3601 37.9761L40.8369 37.9896C47.3967 37.9896 52.7122 33.4823 52.7122 27.922C52.7122 22.6826 47.9827 18.3718 41.9382 17.9008Z" fill="white"/>
<path d="M66.7457 9.64965C66.7457 7.21973 65.7398 5.36129 63.7373 4.07734C61.7332 2.79188 59.0232 2.1469 55.6041 2.1469H54.5075L54.5413 31.2234C54.6352 32.2059 54.9151 33.0654 55.3888 33.7958C55.9717 34.7003 56.7807 35.4638 57.802 36.0833C58.8309 36.7058 60.0275 37.1677 61.3933 37.4767C62.7622 37.7872 64.2249 37.9417 65.7891 37.9417H80.8819C82.443 37.9417 83.8995 37.7977 85.2422 37.5127C86.5834 37.2232 87.7554 36.7988 88.7551 36.2258C89.7564 35.6543 90.57 34.8938 91.2068 33.9398C91.5759 33.3864 92.3111 31.7139 92.3111 30.6925V29.545H66.7457V9.64965Z" fill="white"/>
</svg>
