<svg width="167" height="41" viewBox="0 0 167 41" fill="none" xmlns="http://www.w3.org/2000/svg">
<path d="M148.643 13.0524L148.343 13.1515C147.173 10.6332 145.502 8.62853 143.33 7.13746C141.191 5.6464 138.501 4.90087 135.259 4.90087C133.454 4.90087 131.733 5.2819 130.095 6.04398C128.458 6.77297 127.021 7.81672 125.784 9.17524C124.581 10.5007 123.612 12.1077 122.877 13.9964C122.142 15.8851 121.774 17.9726 121.774 20.2589C121.774 22.5452 122.142 24.6327 122.877 26.5214C123.612 28.4101 124.581 30.0337 125.784 31.3922C127.021 32.7176 128.458 33.7448 130.095 34.4738C131.733 35.2027 133.454 35.5672 135.259 35.5672C138.467 35.5672 141.074 35.0702 143.079 34.0761C145.118 33.049 146.839 31.4917 148.242 29.4042L148.543 29.5032L148.443 32.6842C147.675 33.4794 146.789 34.1918 145.786 34.8213C144.784 35.4178 143.698 35.9314 142.528 36.3621C141.392 36.7598 140.205 37.058 138.969 37.2568C137.732 37.4889 136.496 37.605 135.259 37.605C132.686 37.605 130.23 37.1908 127.89 36.3624C125.551 35.534 123.495 34.3743 121.724 32.8832C119.953 31.3591 118.549 29.5366 117.513 27.416C116.477 25.2622 115.959 22.8765 115.959 20.2588C115.959 17.6412 116.477 15.272 117.513 13.1514C118.549 10.9976 119.953 9.15863 121.724 7.63446C123.495 6.11024 125.551 4.95051 127.89 4.15527C130.23 3.32688 132.686 2.91269 135.259 2.91269C136.496 2.91269 137.732 3.01209 138.969 3.21089C140.205 3.4097 141.392 3.72449 142.528 4.15527C143.698 4.55289 144.784 5.06649 145.786 5.69607C146.789 6.2925 147.675 6.98834 148.443 7.78358L148.643 13.0524Z" fill="white"/>
<path d="M38.177 22.5458C37.8096 22.7112 37.4587 22.9267 37.1243 23.1922C36.7899 23.4571 36.6227 23.8216 36.6227 24.2857V30.399C35.0185 32.6854 32.9632 34.4581 30.4567 35.7172C27.9502 36.9764 25.1764 37.6059 22.1351 37.6059C19.5618 37.6059 17.1055 37.1917 14.7661 36.3633C12.4267 35.535 10.3714 34.3752 8.6001 32.8841C6.82887 31.36 5.42523 29.5376 4.3892 27.4169C3.35322 25.2632 2.83524 22.8774 2.83524 20.2598C2.83524 17.6421 3.35322 15.273 4.3892 13.1524C5.42523 10.9986 6.82887 9.15956 8.6001 7.6354C10.3714 6.11117 12.4267 4.95143 14.7661 4.1562C17.1055 3.3278 19.5618 2.9136 22.1351 2.9136C23.3717 2.9136 24.6082 3.01302 25.8448 3.21183C27.0813 3.41064 28.2677 3.72542 29.404 4.1562C30.5737 4.55382 31.6598 5.06742 32.6624 5.69701C33.665 6.29343 34.5506 6.98927 35.3193 7.7845L35.5202 13.0529L35.2194 13.1519C34.0497 10.6337 32.3787 8.629 30.2065 7.13793C28.0676 5.64685 25.3773 4.90131 22.1355 4.90131C20.3308 4.90131 18.6097 5.28236 16.9722 6.04445C15.3346 6.77344 13.8975 7.81718 12.661 9.1757C11.4579 10.5011 10.4887 12.1082 9.75351 13.9969C9.01825 15.8855 8.65062 17.973 8.65062 20.2594C8.65062 22.5125 9.00153 24.5834 9.70335 26.4721C10.4386 28.3608 11.4078 29.9844 12.6109 31.343C13.8474 32.6684 15.2845 33.7121 16.922 34.4743C18.5596 35.2032 20.2975 35.5677 22.1355 35.5677C25.6112 35.5677 28.5856 34.905 31.0586 33.5796V24.2852C31.0586 23.8216 30.8749 23.4571 30.5075 23.1918C30.1731 22.9269 29.8389 22.7114 29.5049 22.5453L29.5507 22.2971C29.7176 22.3274 30.0184 22.3605 30.453 22.3962C30.8877 22.4265 31.3389 22.4595 31.8065 22.4952C32.3078 22.4952 32.7757 22.4952 33.2102 22.4952C33.6449 22.4952 33.9623 22.4952 34.1626 22.4952C34.3631 22.4952 34.6306 22.4952 34.965 22.4952C35.3324 22.4952 35.7167 22.4952 36.118 22.4952C36.519 22.4649 36.9033 22.4319 37.271 22.3962C37.6384 22.3659 37.9224 22.3328 38.1229 22.2971L38.177 22.5458Z" fill="white"/>
<path d="M74.4866 3.95691C74.1522 4.12239 73.818 4.33786 73.484 4.60335C73.1496 4.86822 72.9659 5.36525 72.9329 6.09442C72.9023 6.88966 72.869 7.90028 72.8329 9.1263C72.8329 10.3192 72.8176 11.6777 72.7871 13.2018C72.7871 14.7261 72.7718 16.3828 72.7412 18.1721C72.7412 19.9614 72.7412 21.817 72.7412 23.7388C72.7107 25.8925 72.4432 27.7315 71.9388 29.2558C71.4375 30.7799 70.7692 32.0556 69.9337 33.0828C69.1316 34.11 68.2293 34.9218 67.2267 35.5183C66.2575 36.1147 65.2883 36.562 64.3192 36.8602C63.3834 37.1918 62.4978 37.3906 61.6623 37.4566C60.8268 37.5561 60.1751 37.6058 59.7072 37.6058C57.8023 37.6058 55.9642 37.3573 54.1929 36.8602C52.4217 36.3965 50.8676 35.6344 49.5308 34.5739C48.1941 33.5136 47.1247 32.1385 46.3226 30.4486C45.5205 28.7587 45.1195 26.7044 45.1195 24.2855C45.1195 22.3636 45.1195 20.4915 45.1195 18.6692C45.1195 16.8136 45.1195 15.0905 45.1195 13.5001C45.1195 11.9096 45.1042 10.4848 45.0736 9.22567C45.0736 7.93341 45.0583 6.88966 45.0278 6.09442C44.9972 5.36543 44.8135 4.86841 44.4767 4.60335C44.1423 4.33847 43.8081 4.123 43.4741 3.95691L43.5199 3.70871C43.6868 3.73903 43.9543 3.77204 44.3223 3.80776C44.7234 3.83808 45.1244 3.8711 45.5254 3.90681C45.9601 3.90681 46.3779 3.92197 46.7787 3.95228C47.1797 3.95228 47.4805 3.95228 47.681 3.95228C47.8816 3.95228 48.1823 3.95228 48.5834 3.95228C48.9844 3.92197 49.4021 3.90681 49.8366 3.90681C50.2712 3.8765 50.6723 3.84348 51.0397 3.80776C51.4407 3.77744 51.7247 3.74443 51.8916 3.70871L51.9374 3.95691C51.57 4.12239 51.2191 4.33786 50.8847 4.60335C50.5839 4.86822 50.4167 5.36525 50.3831 6.09442C50.3525 6.88966 50.3192 7.93341 50.2832 9.22567C50.2832 10.4848 50.2832 11.9096 50.2832 13.5001C50.2832 15.0905 50.2832 16.8136 50.2832 18.6691C50.2832 20.4915 50.2832 22.3636 50.2832 24.2855C50.2832 27.8972 51.1354 30.5646 52.8398 32.2875C54.5442 34.0106 57.0674 34.8721 60.4094 34.8721C61.3786 34.8721 62.4814 34.756 63.718 34.5239C64.9545 34.259 66.1075 33.7289 67.1769 32.9334C68.2798 32.1382 69.1988 31.0116 69.9341 29.5537C70.7027 28.0957 71.087 26.1573 71.087 23.7385C71.087 21.1208 71.0718 18.8842 71.0412 17.0287C71.0412 15.14 71.0259 13.533 70.9953 12.2075C70.9953 10.849 70.9801 9.6893 70.9495 8.72835C70.9189 7.76745 70.8856 6.88939 70.8495 6.09415C70.819 5.36516 70.6353 4.86813 70.2984 4.60308C69.964 4.3382 69.6298 4.12272 69.2958 3.95664L69.3417 3.70844C69.7091 3.77447 70.1268 3.84084 70.5949 3.90754C71.0625 3.93786 71.497 3.95302 71.8983 3.95302C72.2657 3.95302 72.6835 3.93786 73.1515 3.90754C73.6528 3.84151 74.0873 3.77514 74.4549 3.70844L74.4866 3.95691Z" fill="white"/>
<path d="M110.862 13.0524L110.562 13.1515C109.392 10.6332 107.721 8.62853 105.549 7.13746C103.41 5.6464 100.719 4.90087 97.4777 4.90087C95.6731 4.90087 93.9519 5.2819 92.3143 6.04398C90.6767 6.77297 89.2397 7.81672 88.0032 9.17524C86.8001 10.5007 85.8309 12.1077 85.0956 13.9964C84.3604 15.8851 83.9928 17.9726 83.9928 20.2589C83.9928 22.5452 84.3604 24.6327 85.0956 26.5214C85.8309 28.4101 86.8001 30.0337 88.0032 31.3922C89.2397 32.7176 90.6767 33.7448 92.3143 34.4738C93.9519 35.2027 95.6731 35.5672 97.4777 35.5672C100.686 35.5672 103.293 35.0702 105.298 34.0761C107.337 33.049 109.058 31.4917 110.461 29.4042L110.762 29.5032L110.662 32.6842C109.893 33.4794 109.008 34.1918 108.005 34.8213C107.003 35.4178 105.916 35.9314 104.747 36.3621C103.611 36.7598 102.424 37.058 101.188 37.2568C99.951 37.4889 98.7145 37.605 97.478 37.605C94.9046 37.605 92.4483 37.1908 90.1089 36.3624C87.7695 35.534 85.7142 34.3743 83.943 32.8832C82.1717 31.3591 80.768 29.5366 79.7321 27.416C78.696 25.2622 78.178 22.8765 78.178 20.2588C78.178 17.6412 78.696 15.272 79.7321 13.1514C80.768 10.9976 82.1717 9.15863 83.943 7.63446C85.7142 6.11024 87.7695 4.95051 90.1089 4.15527C92.4483 3.32688 94.9046 2.91269 97.478 2.91269C98.7145 2.91269 99.951 3.01209 101.188 3.21089C102.424 3.4097 103.611 3.72449 104.747 4.15527C105.916 4.55289 107.003 5.06649 108.005 5.69607C109.008 6.2925 109.893 6.98834 110.662 7.78358L110.862 13.0524Z" fill="white"/>
<path d="M163.753 36.7605C163.586 36.7302 163.302 36.6971 162.901 36.6614C162.533 36.6614 162.132 36.6463 161.698 36.616C161.263 36.616 160.845 36.6008 160.444 36.5705C160.077 36.5705 159.793 36.5705 159.592 36.5705C159.392 36.5705 159.091 36.5705 158.69 36.5705C158.289 36.5705 157.871 36.5705 157.437 36.5705C157.036 36.6008 156.635 36.6338 156.234 36.6695C155.866 36.6998 155.582 36.7329 155.382 36.7686L155.336 36.5695C155.67 36.404 156.005 36.1885 156.339 35.923C156.673 35.6582 156.857 35.1611 156.89 34.432C156.92 33.6367 156.936 32.8084 156.936 31.9469C156.966 31.0853 156.981 30.1078 156.981 29.0144C156.981 27.9209 156.981 26.6784 156.981 25.2867C156.981 23.8619 156.981 22.1886 156.981 20.2668C156.981 18.3449 156.981 16.6716 156.981 15.2469C156.981 13.822 156.981 12.5629 156.981 11.4695C156.981 10.376 156.966 9.41509 156.936 8.58669C156.936 7.72521 156.92 6.89684 156.89 6.1016C156.859 5.37262 156.675 4.87559 156.339 4.61052C156.004 4.31231 155.67 4.08047 155.336 3.91501L155.382 3.71588C155.582 3.78192 155.866 3.83162 156.234 3.865C156.635 3.865 157.036 3.88016 157.437 3.91047C157.872 3.94079 158.289 3.95595 158.69 3.95595C159.091 3.95595 159.392 3.95595 159.592 3.95595C159.793 3.95595 160.077 3.95595 160.444 3.95595C160.845 3.92563 161.263 3.91047 161.698 3.91047C162.132 3.88016 162.533 3.84714 162.901 3.81142C163.302 3.7811 163.586 3.74809 163.753 3.71237L163.799 3.91147C163.431 4.07695 163.08 4.3088 162.746 4.60701C162.445 4.8719 162.278 5.36891 162.244 6.09808C162.214 6.89332 162.18 7.72169 162.144 8.58317C162.144 9.41157 162.144 10.3725 162.144 11.4659C162.144 12.5594 162.144 13.8185 162.144 15.2434C162.144 16.6681 162.144 18.3414 162.144 20.2633C162.144 22.1851 162.144 23.8584 162.144 25.2832C162.144 26.6748 162.144 27.9174 162.144 29.0109C162.144 30.1043 162.144 31.0818 162.144 31.9434C162.175 32.8048 162.208 33.6332 162.244 34.4284C162.275 35.1574 162.442 35.6545 162.746 35.9195C163.08 36.1844 163.431 36.3999 163.799 36.5659L163.753 36.7605Z" fill="white"/>
</svg>
