<svg width="61" height="41" viewBox="0 0 61 41" fill="none" xmlns="http://www.w3.org/2000/svg">
<g clip-path="url(#clip0_23_120)">
<path d="M42.5614 1.47264C44.7407 0.390957 45.8207 0.532905 45.845 1.62931C45.8741 3.05358 45.6658 4.9476 45.5156 6.31806C44.7067 13.7667 43.3555 19.8533 43.2538 27.5012C46.8135 18.1883 49.7968 11.7155 53.6422 3.74365C54.8627 1.20346 55.6424 1.67825 56.6449 1.22793C60.5484 -0.529099 60.6938 0.547624 60.1851 2.69628C58.2916 10.6545 53.4435 35.7114 52.7027 39.5696C52.4895 40.686 51.2885 40.2127 50.9785 39.7762C49.5886 37.8331 48.0195 37.8028 48.1937 36.5107C49.0655 30.078 52.2038 13.9385 53.0223 10.1356C48.8523 18.7751 44.5276 29.5754 42.3046 35.6992C41.8347 36.9996 40.9775 36.9042 40.4449 35.9527C39.6941 34.6162 38.2364 33.9338 37.9942 32.3544C37.2339 27.3329 38.866 17.7615 39.0935 11.7062C36.8222 18.3209 33.0107 31.1631 31.3398 36.9653C30.6522 39.366 28.3565 38.9744 28.9667 36.6345C31.5044 26.8972 36.9723 9.67555 39.3357 3.48422C39.8929 2.02563 41.3505 2.07458 42.5614 1.47264Z" fill="white"/>
<path d="M28.7199 0.278366C27.9838 0.0973149 25.8479 1.26217 24.5354 1.49216C24.119 1.56558 23.7218 2.01093 23.5813 2.32914C21.4794 7.20878 19.5955 11.8603 17.9634 16.0978C15.876 16.458 13.4352 16.9323 10.7037 17.5524C12.6602 12.4804 14.6362 7.47787 16.5638 2.66676C17.513 0.297874 15.014 0.0727616 14.0453 2.471C12.7861 5.58874 10.4275 11.4301 7.81709 18.2386C5.89922 18.7138 3.86519 19.257 1.73904 19.8777C0.194042 20.3285 0.131162 20.7445 0.79952 21.6808C1.16757 22.2021 1.92794 22.1496 2.2766 22.5211C3.17745 23.4838 3.72472 24.6354 5.33737 24.8097C3.89897 28.6982 2.46059 32.7082 1.15782 36.5693C0.339352 38.993 2.66884 39.4887 3.56487 36.924C5.0081 32.7898 6.52883 28.6056 8.09313 24.4338C9.39589 24.1278 12.5487 23.4416 15.4594 22.8034C13.1492 29.2022 11.6284 34.0618 11.0522 36.4273C10.9457 36.8824 11.1248 37.135 11.2217 37.3205C12.0014 38.4672 12.7424 38.5141 13.745 39.932C14.0162 40.3187 14.9267 40.5272 15.2366 39.5752C17.3772 33.0408 19.5809 26.9097 21.6343 21.4133C22.4866 21.2249 24.0219 20.8505 24.9614 19.4336C26.6322 16.9188 27.1117 17.4288 27.5138 16.6643C28.0175 15.7046 27.6832 14.8035 25.9011 15.0261C25.9011 15.0261 25.2278 15.0746 23.9832 15.218C25.9591 10.0765 27.6881 5.71562 28.9328 2.39245C29.3591 1.26704 29.4124 0.444785 28.7199 0.278366Z" fill="white"/>
<path d="M25.8044 33.6253C26.2645 34.8005 27.7029 34.4446 27.1556 33.0263C26.5986 31.5814 25.2135 27.2318 24.8502 25.8306C24.3563 23.9424 26.4969 24.4588 25.412 25.6932C24.4822 26.7547 23.8622 27.18 22.143 29.1984C20.4818 31.1468 20.9322 33.6753 22.7096 34.2338C24.7146 34.8641 26.4824 32.6314 27.5769 30.9933C28.6375 29.407 27.6107 28.4766 26.5405 29.4144C25.8527 30.0173 25.0585 30.9433 24.2545 31.4426C23.6007 31.8444 23.0873 31.4127 23.9591 30.1999C24.9713 28.7958 26.1045 27.6192 26.9472 26.2923C28.6665 23.5882 25.2667 22.0294 23.8041 23.7859C23.0195 24.7222 23.2181 25.6414 23.4312 26.4303C23.7751 27.694 25.0537 31.7279 25.8044 33.6253Z" fill="white"/>
</g>
<defs>
<clipPath id="clip0_23_120">
<rect width="60" height="40" fill="white" transform="translate(0.395691 0.259277)"/>
</clipPath>
</defs>
</svg>
