<svg width="113" height="41" viewBox="0 0 113 41" fill="none" xmlns="http://www.w3.org/2000/svg">
<g clip-path="url(#clip0_23_118)">
<path d="M12.9868 40.243C9.64969 40.1101 6.9194 39.1951 4.78455 37.4955C4.37712 37.1708 3.40627 36.1973 3.08055 35.7867C2.21484 34.6959 1.62627 33.6342 1.2337 32.4563C0.0257002 28.8304 0.647414 24.0723 3.01198 18.8505C5.03655 14.3799 8.16055 9.94602 13.6108 3.80509C14.4137 2.90146 16.8045 0.258759 16.82 0.258759C16.8257 0.258759 16.6954 0.484948 16.5314 0.760388C15.1143 3.13911 13.9017 5.941 13.2411 8.3667C12.18 12.2589 12.308 15.5991 13.616 18.1891C14.5183 19.9734 16.0651 21.519 17.8045 22.3733C20.8497 23.8685 25.3079 23.9922 30.7525 22.7352C31.1274 22.6482 49.7022 17.7069 72.0302 11.7544C94.3581 5.80128 112.63 0.934467 112.632 0.938474C112.639 0.943636 60.7582 23.1905 33.8262 34.7319C29.5611 36.5592 28.4205 37.0208 26.4154 37.7262C21.2897 39.5301 16.6982 40.3907 12.9868 40.243Z" fill="white"/>
</g>
<defs>
<clipPath id="clip0_23_118">
<rect width="112" height="40" fill="white" transform="translate(0.632385 0.259277)"/>
</clipPath>
</defs>
</svg>
