<svg width="259" height="41" viewBox="0 0 259 41" fill="none" xmlns="http://www.w3.org/2000/svg">
<g clip-path="url(#clip0_23_116)">
<path d="M5.57362 40.2559H1.95195C1.64976 40.2559 0.893738 40.2559 0.893738 39.8035C0.893738 39.5038 1.0454 39.3512 1.4981 39.1996C4.82212 38.1422 5.57249 36.3328 5.57249 33.7713V6.75065C5.57249 4.33505 4.81646 2.52447 1.4981 1.32232C1.0454 1.32232 0.893738 1.02037 0.893738 0.869964C0.893738 0.267194 1.64976 0.417604 1.95195 0.417604H31.8545C38.6508 0.417604 44.2407 5.84593 44.2407 12.6415C44.2407 19.4371 38.6508 24.8587 31.8545 24.8587H16.751V34.0653C16.9027 36.4798 17.6564 38.1366 20.8254 39.1962C21.2781 39.3478 21.4286 39.4993 21.4286 39.8001C21.4286 40.2525 20.6737 40.2525 20.3716 40.2525H5.57362V40.2559ZM228.51 25.6164H235.609L228.51 13.5417L227.753 12.3339L221.415 25.6164H228.51ZM228.51 0.26267H233.344L253.581 35.8861C254.187 36.7908 254.939 37.6955 255.845 38.1479C256.6 38.7529 257.505 38.9056 258.26 39.2053C258.563 39.3579 258.864 39.5095 258.864 39.8103C258.864 40.2627 258.11 40.2627 257.806 40.2627H239.834C239.533 40.2627 238.624 40.2627 238.624 39.8103C238.624 39.5095 238.927 39.3579 239.232 39.2053C240.137 38.9056 240.739 38.4521 241.042 37.5474C241.346 36.4888 241.042 35.8883 240.288 34.5267C239.262 32.3486 238.206 30.1856 237.119 28.0376H220.202L220.053 28.3384C219.9 28.9435 218.694 31.0526 217.789 33.3201C216.583 35.7345 216.129 36.3373 216.431 37.5451C216.584 38.4498 217.336 38.9022 218.242 39.2041C218.546 39.3568 218.694 39.5084 218.694 39.808C218.694 40.2604 217.937 40.2604 217.636 40.2604H209.328C209.027 40.2604 208.27 40.2604 208.27 39.808C208.27 39.5084 208.422 39.3557 208.874 39.2041C209.631 38.9033 210.534 38.7518 211.29 38.1467C212.196 37.6944 212.953 36.7897 213.554 35.8849L214.612 33.6231L226.092 9.61862L224.428 6.75065C222.92 4.33505 221.408 2.82642 219.747 1.92057C218.992 1.46821 218.236 1.46821 217.483 1.16626C217.031 1.01472 216.878 0.863179 217.031 0.561228C217.031 0.259277 217.332 0.410818 217.483 0.259277H228.511L228.51 0.26267ZM183.353 40.1032H183.957C211.75 40.1032 211.449 0.408556 183.957 0.408556H161.151C160.698 0.408556 159.944 0.257016 159.944 0.860917C159.944 1.01133 160.245 1.31328 160.546 1.31328C163.869 2.36954 164.621 4.18124 164.775 6.44644V34.0732C164.625 36.4866 163.869 38.1445 160.546 39.203C160.245 39.3557 159.944 39.5072 159.944 39.808C159.944 40.2604 160.699 40.2604 161.151 40.2604H175.801V40.1077H183.353V40.1032ZM183.353 3.27879C185.393 3.28682 187.348 4.10022 188.792 5.54183C190.235 6.98345 191.05 8.93652 191.059 10.9757V29.389C191.05 31.4283 190.235 33.3816 188.792 34.8232C187.349 36.2649 185.393 37.0782 183.353 37.086H175.796V3.27879H183.353ZM125.803 25.6164H132.902L125.803 13.5417L125.047 12.3339L118.709 25.6164H125.803ZM125.803 0.26267H130.783L151.022 35.8861C151.475 36.7908 152.231 37.6955 153.138 38.1479C153.891 38.7529 154.8 38.9056 155.706 39.2053C156.007 39.3579 156.308 39.5095 156.308 39.8103C156.308 40.2627 155.402 40.2627 155.101 40.2627H137.134C136.831 40.2627 136.076 40.2627 136.076 39.8103C136.076 39.5095 136.226 39.3579 136.678 39.2053C137.435 38.9056 138.188 38.4521 138.341 37.5474C138.642 36.4888 138.341 35.8883 137.736 34.5267C136.678 32.2649 135.473 30.1501 134.416 28.0376H117.495L117.344 28.3384C117.194 28.9435 116.135 31.0526 115.081 33.3201C114.024 35.7345 113.42 36.3373 113.722 37.5451C114.025 38.4498 114.628 38.9022 115.533 39.2041C115.834 39.3568 116.137 39.5084 116.137 39.808C116.137 40.2604 115.382 40.2604 114.93 40.2604H106.771C106.469 40.2604 105.562 40.2604 105.562 39.808C105.562 39.5084 105.865 39.3557 106.167 39.2041C107.072 38.9033 107.828 38.7518 108.736 38.1467C109.49 37.6944 110.397 36.7897 110.849 35.8849L111.906 33.6231L123.537 9.61862L121.878 6.75065C120.368 4.33505 118.709 2.82642 117.196 1.92057C116.29 1.46821 115.685 1.46821 114.778 1.16626C114.475 1.01472 114.173 0.863179 114.326 0.561228C114.479 0.259277 114.778 0.410818 114.931 0.259277H125.805L125.803 0.26267ZM75.9586 26.6738C79.4331 27.8793 83.6626 28.1801 86.9843 27.1261L100.126 38.4464L101.184 39.3512C101.241 39.4103 101.285 39.4817 101.311 39.56C101.338 39.6383 101.346 39.7215 101.336 39.8035C101.336 40.2559 100.58 40.2559 100.277 40.2559H86.3822L75.9609 31.6531L67.5009 24.8598V34.2191C67.6536 36.4809 68.5591 38.1422 71.7303 39.1951C72.0325 39.3478 72.183 39.4982 72.183 39.799C72.183 40.2514 71.427 40.2514 71.1237 40.2514H52.8489C52.3962 40.2514 51.6402 40.2514 51.6402 39.799C51.6402 39.4982 51.9435 39.3466 52.2434 39.1951C55.8651 37.9896 56.3178 36.1779 56.4729 33.3144V7.20301C56.3212 4.48885 55.8685 2.52447 52.2434 1.32232C51.9412 1.32232 51.6402 1.02037 51.6402 0.869964C51.6402 0.267194 52.3962 0.417604 52.8489 0.417604H82.3022C83.9021 0.410758 85.4877 0.718885 86.9684 1.32439C88.4492 1.9299 89.796 2.82092 90.9321 3.94658C92.0682 5.07224 92.9713 6.4105 93.5898 7.88492C94.2082 9.35934 94.53 10.9411 94.5367 12.5397V12.6415C94.5481 15.8686 93.2768 18.9681 91.0022 21.259C88.7276 23.5498 85.6358 24.8446 82.4063 24.8587H72.7862C73.2389 25.7634 74.296 26.0665 75.2014 26.5199C75.5048 26.5199 75.6542 26.6738 75.9575 26.6738H75.9586ZM75.9586 21.9952H77.173C81.0991 21.9952 84.4231 17.7679 84.4231 12.3339C84.4163 7.05147 81.0935 2.82642 77.173 2.82642H67.4997V21.9952H75.9586ZM25.3593 2.82756H16.751V21.9963H26.7208C30.7952 21.9963 33.9642 17.769 33.9642 12.335C33.9642 7.05374 30.7952 2.82756 26.7208 2.82756H25.3593Z" fill="white"/>
</g>
<defs>
<clipPath id="clip0_23_116">
<rect width="257.978" height="40" fill="white" transform="translate(0.89151 0.259277)"/>
</clipPath>
</defs>
</svg>
