<svg width="32" height="33" viewBox="0 0 32 33" fill="none" xmlns="http://www.w3.org/2000/svg">
<path d="M6.66662 17.5927L20 17.5927L15.6133 21.9793C15.4883 22.1033 15.3891 22.2507 15.3214 22.4132C15.2537 22.5757 15.2189 22.75 15.2189 22.926C15.2189 23.102 15.2537 23.2763 15.3214 23.4388C15.3891 23.6012 15.4883 23.7487 15.6133 23.8727C15.8631 24.121 16.201 24.2604 16.5533 24.2604C16.9055 24.2604 17.2435 24.121 17.4933 23.8727L23.2133 18.1393C23.7141 17.6415 23.997 16.9654 24 16.2593C23.9935 15.5579 23.7108 14.8872 23.2133 14.3927L17.4933 8.65934C17.369 8.53589 17.2216 8.43815 17.0595 8.37168C16.8974 8.3052 16.7238 8.27131 16.5486 8.27193C16.3734 8.27255 16.2 8.30767 16.0384 8.37528C15.8768 8.4429 15.7301 8.54169 15.6066 8.666C15.4832 8.79032 15.3854 8.93774 15.319 9.09983C15.2525 9.26193 15.2186 9.43553 15.2192 9.61072C15.2198 9.78591 15.255 9.95926 15.3226 10.1209C15.3902 10.2825 15.489 10.4292 15.6133 10.5527L20 14.926L6.66662 14.926C6.313 14.926 5.97386 15.0665 5.72381 15.3165C5.47376 15.5666 5.33329 15.9057 5.33329 16.2593C5.33329 16.6129 5.47376 16.9521 5.72381 17.2021C5.97386 17.4522 6.313 17.5927 6.66662 17.5927Z" fill="white"/>
</svg>
