<svg width="19" height="17" viewBox="0 0 19 17" fill="none" xmlns="http://www.w3.org/2000/svg">
<path d="M17.3333 7.16665H4L8.38667 2.77999C8.51164 2.65604 8.61083 2.50857 8.67852 2.34609C8.74621 2.18361 8.78106 2.00934 8.78106 1.83332C8.78106 1.6573 8.74621 1.48303 8.67852 1.32055C8.61083 1.15807 8.51164 1.01061 8.38667 0.886655C8.13685 0.63832 7.79891 0.498932 7.44667 0.498932C7.09442 0.498932 6.75648 0.63832 6.50667 0.886655L0.786667 6.61998C0.285883 7.11778 0.00297705 7.79388 0 8.49998V8.49998C0.00648878 9.20145 0.289126 9.87211 0.786667 10.3666L6.50667 16.1C6.63098 16.2234 6.7784 16.3212 6.94049 16.3876C7.10259 16.4541 7.27619 16.488 7.45138 16.4874C7.62657 16.4868 7.79993 16.4516 7.96155 16.384C8.12317 16.3164 8.26989 16.2176 8.39333 16.0933C8.51678 15.969 8.61452 15.8216 8.68099 15.6595C8.74747 15.4974 8.78136 15.3238 8.78074 15.1486C8.78012 14.9734 8.745 14.8 8.67739 14.6384C8.60977 14.4768 8.51098 14.3301 8.38667 14.2066L4 9.83331H17.3333C17.687 9.83331 18.0261 9.69283 18.2761 9.44279C18.5262 9.19274 18.6667 8.8536 18.6667 8.49998C18.6667 8.14636 18.5262 7.80722 18.2761 7.55717C18.0261 7.30712 17.687 7.16665 17.3333 7.16665Z" fill="white"/>
</svg>
