<svg width="24" height="24" viewBox="0 0 24 24" fill="none" xmlns="http://www.w3.org/2000/svg">
<g clip-path="url(#clip0_37_870)">
<path d="M23.1213 9.06892L15.5363 1.48292C14.5975 0.546909 13.3259 0.0212936 12.0003 0.0212936C10.6746 0.0212936 9.40301 0.546909 8.46426 1.48292L0.879256 9.06892C0.599682 9.3467 0.378026 9.67722 0.227139 10.0413C0.0762514 10.4054 -0.00086626 10.7958 0.00025622 11.1899V21.0069C0.00025622 21.8026 0.316327 22.5656 0.878936 23.1282C1.44155 23.6908 2.20461 24.0069 3.00026 24.0069H21.0003C21.7959 24.0069 22.559 23.6908 23.1216 23.1282C23.6842 22.5656 24.0003 21.8026 24.0003 21.0069V11.1899C24.0014 10.7958 23.9243 10.4054 23.7734 10.0413C23.6225 9.67722 23.4008 9.3467 23.1213 9.06892ZM15.0003 22.0069H9.00026V18.0729C9.00026 17.2773 9.31633 16.5142 9.87894 15.9516C10.4415 15.389 11.2046 15.0729 12.0003 15.0729C12.7959 15.0729 13.559 15.389 14.1216 15.9516C14.6842 16.5142 15.0003 17.2773 15.0003 18.0729V22.0069ZM22.0003 21.0069C22.0003 21.2721 21.8949 21.5265 21.7074 21.714C21.5198 21.9016 21.2655 22.0069 21.0003 22.0069H17.0003V18.0729C17.0003 16.7468 16.4735 15.4751 15.5358 14.5374C14.5981 13.5997 13.3263 13.0729 12.0003 13.0729C10.6742 13.0729 9.40241 13.5997 8.46472 14.5374C7.52704 15.4751 7.00026 16.7468 7.00026 18.0729V22.0069H3.00026C2.73504 22.0069 2.48069 21.9016 2.29315 21.714C2.10561 21.5265 2.00026 21.2721 2.00026 21.0069V11.1899C2.00118 10.9249 2.10645 10.6709 2.29326 10.4829L9.87826 2.89992C10.442 2.33885 11.2049 2.02386 12.0003 2.02386C12.7956 2.02386 13.5586 2.33885 14.1223 2.89992L21.7073 10.4859C21.8933 10.6732 21.9985 10.9259 22.0003 11.1899V21.0069Z" fill="#181818"/>
</g>
<defs>
<clipPath id="clip0_37_870">
<rect width="24" height="24" fill="white"/>
</clipPath>
</defs>
</svg>
