<svg width="25" height="24" viewBox="0 0 25 24" fill="none" xmlns="http://www.w3.org/2000/svg">
<g clip-path="url(#clip0_37_852)">
<path d="M24.5 10.0001C24.5 9.92715 24.492 9.85437 24.476 9.78315L23.176 3.91515C22.9345 2.80138 22.3173 1.80453 21.4281 1.09173C20.5389 0.378926 19.4316 -0.00647535 18.292 0.000144924H6.708C5.56905 -0.00555538 4.46273 0.380267 3.57433 1.09299C2.68593 1.80572 2.0694 2.80206 1.828 3.91515L0.524001 9.78315C0.508009 9.85437 0.49996 9.92715 0.500001 10.0001V11.0001C0.499195 11.9737 0.854923 12.9139 1.5 13.6431V19.0001C1.50159 20.3257 2.02888 21.5966 2.96622 22.5339C3.90356 23.4713 5.17441 23.9986 6.5 24.0001H18.5C19.8256 23.9986 21.0964 23.4713 22.0338 22.5339C22.9711 21.5966 23.4984 20.3257 23.5 19.0001V13.6431C24.1451 12.9139 24.5008 11.9737 24.5 11.0001V10.0001ZM2.5 10.1091L3.78 4.34915C3.92504 3.6814 4.29502 3.08372 4.82801 2.65612C5.36101 2.22852 6.02469 1.99695 6.708 2.00015H7.5V5.00015C7.5 5.26536 7.60536 5.51972 7.7929 5.70725C7.98043 5.89479 8.23479 6.00015 8.5 6.00015C8.76522 6.00015 9.01957 5.89479 9.20711 5.70725C9.39464 5.51972 9.5 5.26536 9.5 5.00015V2.00015H15.5V5.00015C15.5 5.26536 15.6054 5.51972 15.7929 5.70725C15.9804 5.89479 16.2348 6.00015 16.5 6.00015C16.7652 6.00015 17.0196 5.89479 17.2071 5.70725C17.3946 5.51972 17.5 5.26536 17.5 5.00015V2.00015H18.292C18.9753 1.99695 19.639 2.22852 20.172 2.65612C20.705 3.08372 21.075 3.6814 21.22 4.34915L22.5 10.1091V11.0001C22.5 11.5306 22.2893 12.0393 21.9142 12.4144C21.5391 12.7894 21.0304 13.0001 20.5 13.0001H19.5C18.9696 13.0001 18.4609 12.7894 18.0858 12.4144C17.7107 12.0393 17.5 11.5306 17.5 11.0001C17.5 10.7349 17.3946 10.4806 17.2071 10.293C17.0196 10.1055 16.7652 10.0001 16.5 10.0001C16.2348 10.0001 15.9804 10.1055 15.7929 10.293C15.6054 10.4806 15.5 10.7349 15.5 11.0001C15.5 11.5306 15.2893 12.0393 14.9142 12.4144C14.5391 12.7894 14.0304 13.0001 13.5 13.0001H11.5C10.9696 13.0001 10.4609 12.7894 10.0858 12.4144C9.71072 12.0393 9.5 11.5306 9.5 11.0001C9.5 10.7349 9.39464 10.4806 9.20711 10.293C9.01957 10.1055 8.76522 10.0001 8.5 10.0001C8.23479 10.0001 7.98043 10.1055 7.7929 10.293C7.60536 10.4806 7.5 10.7349 7.5 11.0001C7.5 11.5306 7.28929 12.0393 6.91422 12.4144C6.53914 12.7894 6.03044 13.0001 5.5 13.0001H4.5C3.96957 13.0001 3.46086 12.7894 3.08579 12.4144C2.71072 12.0393 2.5 11.5306 2.5 11.0001V10.1091ZM18.5 22.0001H6.5C5.70435 22.0001 4.94129 21.6841 4.37868 21.1215C3.81607 20.5589 3.5 19.7958 3.5 19.0001V14.8731C3.8266 14.9577 4.16263 15.0004 4.5 15.0001H5.5C6.06782 15.0004 6.62916 14.8795 7.14651 14.6455C7.66386 14.4115 8.1253 14.0698 8.5 13.6431C8.8747 14.0698 9.33615 14.4115 9.8535 14.6455C10.3708 14.8795 10.9322 15.0004 11.5 15.0001H13.5C14.0678 15.0004 14.6292 14.8795 15.1465 14.6455C15.6639 14.4115 16.1253 14.0698 16.5 13.6431C16.8747 14.0698 17.3361 14.4115 17.8535 14.6455C18.3708 14.8795 18.9322 15.0004 19.5 15.0001H20.5C20.8374 15.0004 21.1734 14.9577 21.5 14.8731V19.0001C21.5 19.7958 21.1839 20.5589 20.6213 21.1215C20.0587 21.6841 19.2957 22.0001 18.5 22.0001Z" fill="#181818" fill-opacity="0.8"/>
</g>
<defs>
<clipPath id="clip0_37_852">
<rect width="24" height="24" fill="white" transform="translate(0.5)"/>
</clipPath>
</defs>
</svg>
