<svg width="25" height="24" viewBox="0 0 25 24" fill="none" xmlns="http://www.w3.org/2000/svg">
<g clip-path="url(#clip0_37_853)">
<path d="M20.4997 7.99996C20.5026 6.70482 20.1909 5.42835 19.5915 4.28024C18.9922 3.13213 18.123 2.1467 17.0588 1.40863C15.9945 0.670557 14.767 0.201911 13.4816 0.0429568C12.1962 -0.115997 10.8915 0.0394945 9.67952 0.496071C8.46752 0.952648 7.3845 1.69666 6.5235 2.66417C5.6625 3.63169 5.04928 4.79378 4.73652 6.05059C4.42376 7.30741 4.42082 8.62137 4.72794 9.87957C5.03507 11.1378 5.64308 12.3026 6.49974 13.274V21.5C6.49973 21.9709 6.63275 22.4323 6.88347 22.8309C7.13419 23.2296 7.49242 23.5493 7.9169 23.7533C8.34138 23.9573 8.81484 24.0372 9.28276 23.9839C9.75068 23.9306 10.194 23.7462 10.5617 23.452L12.4997 21.9L14.4377 23.45C14.8053 23.7441 15.2485 23.9285 15.7162 23.9819C16.184 24.0353 16.6573 23.9555 17.0817 23.7518C17.5061 23.548 17.8643 23.2286 18.1152 22.8302C18.3661 22.4318 18.4994 21.9707 18.4997 21.5V13.274C19.788 11.8192 20.4994 9.9432 20.4997 7.99996ZM12.4997 1.99996C13.6864 1.99996 14.8465 2.35185 15.8332 3.01114C16.8199 3.67043 17.5889 4.6075 18.043 5.70386C18.4971 6.80021 18.616 8.00661 18.3844 9.1705C18.1529 10.3344 17.5815 11.4035 16.7424 12.2426C15.9033 13.0817 14.8342 13.6532 13.6703 13.8847C12.5064 14.1162 11.3 13.9974 10.2036 13.5432C9.10728 13.0891 8.17021 12.3201 7.51092 11.3334C6.85163 10.3467 6.49974 9.18665 6.49974 7.99996C6.50133 6.40915 7.13398 4.88395 8.25885 3.75907C9.38372 2.6342 10.9089 2.00155 12.4997 1.99996ZM16.2167 21.948C16.1321 21.9899 16.0372 22.0065 15.9434 21.9959C15.8496 21.9852 15.7608 21.9478 15.6877 21.888L12.4997 19.337L9.31274 21.888C9.23936 21.9469 9.15086 21.9839 9.05739 21.9947C8.96393 22.0056 8.8693 21.9898 8.78438 21.9493C8.69946 21.9088 8.6277 21.8451 8.57735 21.7656C8.527 21.6861 8.5001 21.594 8.49974 21.5V14.918C9.71371 15.6265 11.0941 15.9999 12.4997 15.9999C13.9054 15.9999 15.2858 15.6265 16.4997 14.918V21.5C16.5009 21.594 16.4747 21.6863 16.4245 21.7658C16.3743 21.8453 16.3021 21.9086 16.2167 21.948Z" fill="#181818" fill-opacity="0.8"/>
</g>
<defs>
<clipPath id="clip0_37_853">
<rect width="24" height="24" fill="white" transform="translate(0.5)"/>
</clipPath>
</defs>
</svg>
