<svg width="24" height="24" viewBox="0 0 24 24" fill="none" xmlns="http://www.w3.org/2000/svg">
<g clip-path="url(#clip0_37_856)">
<path d="M12.9999 1.0001C12.9999 0.734885 13.1053 0.480531 13.2928 0.292995C13.4803 0.105458 13.7347 0.000101607 13.9999 0.000101607C16.6512 0.0030132 19.193 1.05752 21.0678 2.93225C22.9425 4.80698 23.997 7.34883 23.9999 10.0001C23.9999 10.2653 23.8945 10.5197 23.707 10.7072C23.5195 10.8947 23.2651 11.0001 22.9999 11.0001C22.7347 11.0001 22.4803 10.8947 22.2928 10.7072C22.1053 10.5197 21.9999 10.2653 21.9999 10.0001C21.9975 7.8791 21.1539 5.84565 19.6541 4.34588C18.1544 2.8461 16.1209 2.00248 13.9999 2.0001C13.7347 2.0001 13.4803 1.89474 13.2928 1.70721C13.1053 1.51967 12.9999 1.26532 12.9999 1.0001ZM13.9999 6.0001C15.0608 6.0001 16.0782 6.42153 16.8283 7.17168C17.5785 7.92182 17.9999 8.93924 17.9999 10.0001C17.9999 10.2653 18.1053 10.5197 18.2928 10.7072C18.4803 10.8947 18.7347 11.0001 18.9999 11.0001C19.2651 11.0001 19.5195 10.8947 19.707 10.7072C19.8945 10.5197 19.9999 10.2653 19.9999 10.0001C19.9983 8.40929 19.3657 6.88409 18.2408 5.75922C17.1159 4.63434 15.5907 4.00169 13.9999 4.0001C13.7347 4.0001 13.4803 4.10546 13.2928 4.293C13.1053 4.48053 12.9999 4.73489 12.9999 5.0001C12.9999 5.26532 13.1053 5.51967 13.2928 5.70721C13.4803 5.89475 13.7347 6.0001 13.9999 6.0001ZM23.0929 16.7391C23.6724 17.3202 23.9978 18.1074 23.9978 18.9281C23.9978 19.7488 23.6724 20.536 23.0929 21.1171L22.1829 22.1661C13.9929 30.0071 -5.93707 10.0821 1.78292 1.8661L2.93292 0.866102C3.51469 0.302779 4.29485 -0.00884932 5.10462 -0.00136355C5.91439 0.00612221 6.68866 0.33212 7.25992 0.906102C7.29092 0.937102 9.14391 3.3441 9.14391 3.3441C9.69374 3.92173 9.99982 4.68903 9.99851 5.48651C9.99721 6.28398 9.68863 7.05028 9.13691 7.6261L7.97892 9.0821C8.61976 10.6392 9.56198 12.0543 10.7514 13.2462C11.9409 14.438 13.3541 15.3831 14.9099 16.0271L16.3749 14.8621C16.9508 14.3108 17.717 14.0026 18.5142 14.0015C19.3114 14.0004 20.0785 14.3064 20.6559 14.8561C20.6559 14.8561 23.0619 16.7081 23.0929 16.7391ZM21.7169 18.1931C21.7169 18.1931 19.3239 16.3521 19.2929 16.3211C19.0869 16.1168 18.8085 16.0022 18.5184 16.0022C18.2283 16.0022 17.9499 16.1168 17.7439 16.3211C17.7169 16.3491 15.6999 17.9561 15.6999 17.9561C15.564 18.0643 15.4022 18.1352 15.2306 18.1619C15.0589 18.1885 14.8832 18.17 14.7209 18.1081C12.7054 17.3577 10.8746 16.1828 9.35275 14.6632C7.83085 13.1435 6.65332 11.3145 5.89992 9.3001C5.83312 9.13556 5.81134 8.95619 5.83682 8.78044C5.86231 8.60469 5.93413 8.4389 6.04492 8.3001C6.04492 8.3001 7.65192 6.2821 7.67892 6.2561C7.88318 6.05009 7.99779 5.77172 7.99779 5.4816C7.99779 5.19149 7.88318 4.91312 7.67892 4.7071C7.64792 4.6771 5.80692 2.2821 5.80692 2.2821C5.59782 2.09461 5.32492 1.9942 5.04417 2.00145C4.76341 2.0087 4.49606 2.12306 4.29692 2.3211L3.14692 3.3211C-2.49507 10.1051 14.7759 26.4181 20.7209 20.8001L21.6319 19.7501C21.8454 19.5524 21.9736 19.2794 21.9895 18.9888C22.0053 18.6982 21.9076 18.4129 21.7169 18.1931Z" fill="#181818" fill-opacity="0.8"/>
</g>
<defs>
<clipPath id="clip0_37_856">
<rect width="24" height="24" fill="white"/>
</clipPath>
</defs>
</svg>
